<svg xmlns="http://www.w3.org/2000/svg" xmlns:xlink="http://www.w3.org/1999/xlink" xmlns:lucid="lucid" width="1683" height="1152"><g transform="translate(-49 -129)" lucid:page-tab-id="0_0"><path d="M0 0h1760v1360H0z" fill="#fff"/><path d="M160 540h100v220H160z" stroke="#000" stroke-width="2" fill="#fff"/><use xlink:href="#a" transform="matrix(1,0,0,1,165,545) translate(32.525 108.60000000000001)"/><path d="M400 560h180v180H400z" stroke="#000" stroke-width="2" fill="#fff"/><use xlink:href="#b" transform="matrix(1,0,0,1,405,565) translate(8.625 88.60000000000001)"/><use xlink:href="#c" transform="matrix(1,0,0,1,405,565) translate(96.525 88.60000000000001)"/><path d="M740 560h180v180H740z" stroke="#000" stroke-width="2" fill="#fff"/><use xlink:href="#d" transform="matrix(1,0,0,1,745,565) translate(28.574999999999996 88.60000000000001)"/><use xlink:href="#e" transform="matrix(1,0,0,1,745,565) translate(100.42500000000001 88.60000000000001)"/><path d="M1340 570h180v180h-180z" stroke="#000" stroke-width="2" fill="#fff"/><use xlink:href="#f" transform="matrix(1,0,0,1,1345,575) translate(31.099999999999994 88.60000000000001)"/><use xlink:href="#c" transform="matrix(1,0,0,1,1345,575) translate(74.05 88.60000000000001)"/><path d="M320 320h300v100H320z" stroke="#000" stroke-width="2" fill="#fff"/><use xlink:href="#g" transform="matrix(1,0,0,1,325,325) translate(80.57499999999999 48.6)"/><use xlink:href="#h" transform="matrix(1,0,0,1,325,325) translate(166.475 48.6)"/><path d="M1100 640V540l120 40v160l-120 40V680l25-20z" stroke="#000" stroke-width="2" fill="#fff"/><use xlink:href="#i" transform="matrix(1,0,0,1,1100,540) translate(42.525 123.60000000000001)"/><path d="M975 760V640l40 10.67v98.66z" stroke="#000" stroke-width="2" fill="#fff"/><use xlink:href="#j" transform="matrix(6.123233995736766e-17,-1,1,6.123233995736766e-17,979.9999999999999,755.0000000000001) translate(35.05 18.6)"/><path d="M640 800V680l40 10.67v98.66z" stroke="#000" stroke-width="2" fill="#fff"/><use xlink:href="#j" transform="matrix(6.123233995736766e-17,-1,1,6.123233995736766e-17,645,795) translate(35.05 18.6)"/><path d="M1640 700V580l40 10.67v98.66z" stroke="#000" stroke-width="2" fill="#fff"/><use xlink:href="#j" transform="matrix(6.123233995736766e-17,-1,1,6.123233995736766e-17,1645,695) translate(35.05 18.6)"/><path d="M620 1060h160v120H620z" stroke="#000" stroke-width="2" fill="#fff"/><use xlink:href="#k" transform="matrix(1,0,0,1,625,1065) translate(27.624999999999993 58.6)"/><use xlink:href="#l" transform="matrix(1,0,0,1,625,1065) translate(90.475 58.6)"/><path d="M261 650h119.76" stroke="#000" stroke-width="2" fill="none"/><path d="M261 651h-1v-2h1zM395.76 650l-14.26 4.64v-9.28z"/><path d="M399 650l-18.5 6v-12zm-16.5 3.26l10.03-3.26-10.03-3.26z"/><path d="M261 650h29V392.67h10.76" stroke="#000" stroke-width="2" fill="none"/><path d="M261 651h-1v-2h1zM315.76 392.67l-14.26 4.63v-9.27z"/><path d="M319 392.67l-18.5 6v-12.02zm-16.5 3.26l10.03-3.26-10.03-3.26z"/><use xlink:href="#m" transform="matrix(1,0,0,1,266.0290889580638,653.0307509907402) translate(0 14.4)"/><path d="M621 332h40v-72H119v390h21.76" stroke="#000" stroke-width="2" fill="none"/><path d="M621 333h-1v-2h1zM155.76 650l-14.26 4.64v-9.28z"/><path d="M159 650l-18.5 6v-12zm-16.5 3.26l10.03-3.26-10.03-3.26z"/><use xlink:href="#n" transform="matrix(1,0,0,1,462.575,234.4) translate(0 14.4)"/><use xlink:href="#o" transform="matrix(1,0,0,1,126.99999999999999,439.2000000000001) translate(0 14.4)"/><path d="M490 741v379h110.76" stroke="#834187" stroke-width="2" fill="none"/><path d="M491 741h-2v-1h2zM615.76 1120l-14.26 4.64v-9.28z" fill="#834187"/><path d="M619 1120l-18.5 6v-12zm-16.5 3.26l10.03-3.26-10.03-3.26z" fill="#834187"/><use xlink:href="#p" transform="matrix(1,0,0,1,399.1,753.2) translate(0 14.4)"/><path d="M681 740h9v-38h30.76" stroke="#000" stroke-width="2" fill="none"/><path d="M681.55 740.83l-1.55 1.04v-2.4l.45-.3zM735.76 702l-14.26 4.64v-9.28z"/><path d="M739 702l-18.5 6v-12zm-16.5 3.26l10.03-3.26-10.03-3.26z"/><path d="M921 595h159.76" stroke="#000" stroke-width="2" fill="none"/><path d="M921 596h-1v-2h1zM1095.76 595l-14.26 4.64v-9.28z"/><path d="M1099 595l-18.5 6v-12zm-16.5 3.26l10.03-3.26-10.03-3.26z"/><path d="M1221 660h99.76" stroke="#000" stroke-width="2" fill="none"/><path d="M1221 661h-1v-2h1zM1335.76 660l-14.26 4.64v-9.28z"/><path d="M1339 660l-18.5 6v-12zm-16.5 3.26l10.03-3.26-10.03-3.26z"/><use xlink:href="#q" transform="matrix(1,0,0,1,1228.0962962962963,664) translate(0 10.666666666666668)"/><path d="M921 701h22v179h374V717h3.76" stroke="#000" stroke-width="2" fill="none"/><path d="M921 702h-1v-2h1zM1335.76 717l-14.26 4.64v-9.28z"/><path d="M1339 717l-18.5 6v-12zm-16.5 3.26l10.03-3.26-10.03-3.26z"/><use xlink:href="#r" transform="matrix(1,0,0,1,1273.8090314491965,698.8281446994214) translate(0 10.666666666666668)"/><path d="M1681 640h40v310H710V731h10.76" stroke="#000" stroke-width="2" fill="none"/><path d="M1681 641h-1v-2h1zM735.76 731l-14.26 4.64v-9.28z"/><path d="M739 731l-18.5 6v-12zm-16.5 3.26l10.03-3.26-10.03-3.26z"/><use xlink:href="#s" transform="matrix(1,0,0,1,1041.5750000000003,954.0000000000001) translate(0 14.4)"/><path d="M1521 660h99.76" stroke="#000" stroke-width="2" fill="none"/><path d="M1521 661h-1v-2h1zM1635.76 660l-14.26 4.64v-9.28z"/><path d="M1639 660l-18.5 6v-12zm-16.5 3.26l10.03-3.26-10.03-3.26z"/><use xlink:href="#t" transform="matrix(1,0,0,1,1533.55,664) translate(0 14.4)"/><path d="M1160 558.95V470H561v-27.53" stroke="#000" stroke-width="4" fill="none"/><path d="M1162 560.67l-4-1.34v-.38h4zM565.64 441.74h-9.28l4.64-14.27z"/><path d="M568.4 443.74h-14.8L561 421zm-9.28-4h3.76l-1.88-5.8z"/><use xlink:href="#u" transform="matrix(1,0,0,1,983.15,444.4) translate(0 14.4)"/><path d="M1221 660h22V480h327v160h50.76" stroke="#000" stroke-width="2" fill="none"/><path d="M1221 661h-1v-2h1zM1635.76 640l-14.26 4.64v-9.28z"/><path d="M1639 640l-18.5 6v-12zm-16.5 3.26l10.03-3.26-10.03-3.26z"/><use xlink:href="#v" transform="matrix(1,0,0,1,1491.025,454.3999999999999) translate(0 14.4)"/><path d="M621 399h979v206h20.76" stroke="#000" stroke-width="2" fill="none"/><path d="M621 400h-1v-2h1zM1635.76 605l-14.26 4.64v-9.28z"/><path d="M1639 605l-18.5 6v-12zm-16.5 3.26l10.03-3.26-10.03-3.26z"/><use xlink:href="#w" transform="matrix(1,0,0,1,1536.275,373.40000000000003) translate(0 14.4)"/><path d="M1016 700h64.76" stroke="#000" stroke-width="2" fill="none"/><path d="M1016 701h-1v-2h1zM1095.76 700l-14.26 4.64v-9.28z"/><path d="M1099 700l-18.5 6v-12zm-16.5 3.26l10.03-3.26-10.03-3.26z"/><path d="M921 595h26.5v67.5h8.26" stroke="#000" stroke-width="2" fill="none"/><path d="M921 596h-1v-2h1zM970.76 662.5l-14.26 4.64v-9.28z"/><path d="M974 662.5l-18.5 6v-12zm-16.5 3.26l10.03-3.26-10.03-3.26z"/><use xlink:href="#x" transform="matrix(1,0,0,1,924.8555555555555,575) translate(0 10.666666666666668)"/><path d="M921 701h26.5v-15h8.26" stroke="#000" stroke-width="2" fill="none"/><path d="M921 702h-1v-2h1zM970.76 686l-14.26 4.64v-9.28z"/><path d="M974 686l-18.5 6v-12zm-16.5 3.26l10.03-3.26-10.03-3.26z"/><use xlink:href="#y" transform="matrix(1,0,0,1,922.574074074074,678.0202764774976) translate(0 10.666666666666668)"/><path d="M490 741v109h462V741h3.76" stroke="#834187" stroke-width="2" fill="none"/><path d="M491 741h-2v-1h2zM970.76 741l-14.26 4.64v-9.28z" fill="#834187"/><path d="M974 741l-18.5 6v-12zm-16.5 3.26l10.03-3.26-10.03-3.26z" fill="#834187"/><path d="M490 741v109h460V720h5.76" stroke="#834187" stroke-width="2" fill="none"/><path d="M491 741h-2v-1h2zM970.76 720l-14.26 4.64v-9.28z" fill="#834187"/><path d="M974 720l-18.5 6v-12zm-16.5 3.26l10.03-3.26-10.03-3.26z" fill="#834187"/><path d="M490 741v39h119.5v-72h11.26" stroke="#834187" stroke-width="2" fill="none"/><path d="M491 741h-2v-1h2zM635.76 708l-14.26 4.64v-9.28z" fill="#834187"/><path d="M639 708l-18.5 6v-12zm-16.5 3.26l10.03-3.26-10.03-3.26z" fill="#834187"/><use xlink:href="#z" transform="matrix(1,0,0,1,616.4629629629629,687.9999999999999) translate(0 10.666666666666668)"/><path d="M490 741v39h131.76" stroke="#834187" stroke-width="2" fill="none"/><path d="M491 741h-2v-1h2z" fill="#834187"/><path d="M636.76 780l-14.26 4.64v-9.28z" stroke="#834187" stroke-width="2" fill="#834187"/><use xlink:href="#A" transform="matrix(1,0,0,1,617.9444444444445,760) translate(0 10.666666666666668)"/><path d="M581 596h139.76" stroke="#834187" stroke-width="2" fill="none"/><path d="M581 597h-1v-2h1zM735.76 596l-14.26 4.64v-9.28z" fill="#834187"/><path d="M739 596l-18.5 6v-12zm-16.5 3.26l10.03-3.26-10.03-3.26z" fill="#834187"/><use xlink:href="#B" transform="matrix(1,0,0,1,601.525,570.4) translate(0 14.4)"/><path d="M581 650h139.76" stroke="#834187" stroke-width="2" fill="none"/><path d="M581 651h-1v-2h1zM735.76 650l-14.26 4.64v-9.28z" fill="#834187"/><path d="M739 650l-18.5 6v-12zm-16.5 3.26l10.03-3.26-10.03-3.26z" fill="#834187"/><use xlink:href="#C" transform="matrix(1,0,0,1,603.725,624.4000000000001) translate(0 14.4)"/><path d="M490 741v79H360V439.24" stroke="#834187" stroke-width="2" fill="none"/><path d="M491 741h-2v-1h2zM364.64 438.5h-9.28l4.64-14.26z" fill="#834187"/><path d="M366 439.5h-12l6-18.5zm-9.26-2h6.52L360 427.47z" fill="#834187"/><path d="M781 1120h379V779.3" stroke="#0c7cba" stroke-width="2" fill="none"/><path d="M781 1121h-1v-2h1zM1164.64 778.56h-9.28l4.64-14.27z" fill="#0c7cba"/><path d="M1166 779.56h-12l6-18.5zm-9.26-2h6.52l-3.26-10.03z" fill="#0c7cba"/><use xlink:href="#D" transform="matrix(1,0,0,1,1167.9999999999998,798.0574246314461) translate(0 14.4)"/><path d="M781 1154h40v66H80V190h660v180H639.24" stroke="#0c7cba" stroke-width="2" fill="none"/><path d="M781 1155h-1v-2h1zM638.5 374.64L624.24 370l14.26-4.64z" fill="#0c7cba"/><path d="M639.5 376l-18.5-6 18.5-6zm-12.03-6l10.03 3.26v-6.52z" fill="#0c7cba"/><use xlink:href="#E" transform="matrix(1,0,0,1,639.25,344.40000000000003) translate(0 14.4)"/><path d="M781 1140h79v130H60V140h721v270H639.24" stroke="#0c7cba" stroke-width="2" fill="none"/><path d="M781 1141h-1v-2h1zM638.5 414.64L624.24 410l14.26-4.64z" fill="#0c7cba"/><path d="M639.5 416l-18.5-6 18.5-6zm-12.03-6l10.03 3.26v-6.52z" fill="#0c7cba"/><use xlink:href="#F" transform="matrix(1,0,0,1,658.1000000000006,414) translate(0 14.4)"/><path d="M781 1130h649V769.24" stroke="#0c7cba" stroke-width="2" fill="none"/><path d="M781 1131h-1v-2h1zM1434.64 768.5h-9.28l4.64-14.26z" fill="#0c7cba"/><path d="M1436 769.5h-12l6-18.5zm-9.26-2h6.52l-3.26-10.03z" fill="#0c7cba"/><use xlink:href="#G" transform="matrix(1,0,0,1,1438,769.2) translate(0 14.4)"/><path d="M781 1075h96.5V759.24" stroke="#0c7cba" stroke-width="2" fill="none"/><path d="M781 1076h-1v-2h1zM882.14 758.5h-9.28l4.64-14.26z" fill="#0c7cba"/><path d="M883.5 759.5h-12l6-18.5zm-9.26-2h6.52l-3.26-10.03z" fill="#0c7cba"/><use xlink:href="#H" transform="matrix(1,0,0,1,795.05,763.2) translate(0 14.4)"/><path d="M781 1086h214V773.94" stroke="#0c7cba" stroke-width="2" fill="none"/><path d="M781 1087h-1v-2h1zM999.64 773.2h-9.28l4.64-14.26z" fill="#0c7cba"/><path d="M1001 774.2h-12l6-18.5zm-9.26-2h6.52L995 762.17z" fill="#0c7cba"/><use xlink:href="#I" transform="matrix(1,0,0,1,1002.9999999999998,795.2) translate(0 14.4)"/><path d="M781 1098h879V713.94" stroke="#0c7cba" stroke-width="2" fill="none"/><path d="M781 1099h-1v-2h1zM1664.64 713.2h-9.28l4.64-14.26z" fill="#0c7cba"/><path d="M1666 714.2h-12l6-18.5zm-9.26-2h6.52l-3.26-10.03z" fill="#0c7cba"/><use xlink:href="#J" transform="matrix(1,0,0,1,1560.1999999999998,721.2) translate(0 14.4)"/><path d="M781 1108h40v-98H660V813.94" stroke="#0c7cba" stroke-width="2" fill="none"/><path d="M781 1109h-1v-2h1zM664.64 813.2h-9.28l4.64-14.26z" fill="#0c7cba"/><path d="M666 814.2h-12l6-18.5zm-9.26-2h6.52L660 802.17z" fill="#0c7cba"/><g><use xlink:href="#K" transform="matrix(1,0,0,1,582.1,817.2) translate(0 14.4)"/></g><path d="M804 840c8.84 0 16 8.95 16 20s-7.16 20-16 20h-48c-8.84 0-16-8.95-16-20s7.16-20 16-20z" stroke="#834187" stroke-width="2" fill="#fff"/><g><use xlink:href="#L" transform="matrix(1,0,0,1,745,845) translate(1.5249999999999986 18.6)"/><use xlink:href="#M" transform="matrix(1,0,0,1,745,845) translate(42.475 18.6)"/></g><defs><path d="M30-248c87 1 191-15 191 75 0 78-77 80-158 76V0H30v-248zm33 125c57 0 124 11 124-50 0-59-68-47-124-48v98" id="N"/><path d="M212-179c-10-28-35-45-73-45-59 0-87 40-87 99 0 60 29 101 89 101 43 0 62-24 78-52l27 14C228-24 195 4 139 4 59 4 22-46 18-125c-6-104 99-153 187-111 19 9 31 26 39 46" id="O"/><g id="a"><use transform="matrix(0.05,0,0,0.05,0,0)" xlink:href="#N"/><use transform="matrix(0.05,0,0,0.05,12,0)" xlink:href="#O"/></g><path d="M33 0v-248h34V0H33" id="P"/><path d="M117-194c89-4 53 116 60 194h-32v-121c0-31-8-49-39-48C34-167 62-67 57 0H25l-1-190h30c1 10-1 24 2 32 11-22 29-35 61-36" id="Q"/><path d="M135-143c-3-34-86-38-87 0 15 53 115 12 119 90S17 21 10-45l28-5c4 36 97 45 98 0-10-56-113-15-118-90-4-57 82-63 122-42 12 7 21 19 24 35" id="R"/><path d="M59-47c-2 24 18 29 38 22v24C64 9 27 4 27-40v-127H5v-23h24l9-43h21v43h35v23H59v120" id="S"/><path d="M114-163C36-179 61-72 57 0H25l-1-190h30c1 12-1 29 2 39 6-27 23-49 58-41v29" id="T"/><path d="M84 4C-5 8 30-112 23-190h32v120c0 31 7 50 39 49 72-2 45-101 50-169h31l1 190h-30c-1-10 1-25-2-33-11 22-28 36-60 37" id="U"/><path d="M96-169c-40 0-48 33-48 73s9 75 48 75c24 0 41-14 43-38l32 2c-6 37-31 61-74 61-59 0-76-41-82-99-10-93 101-131 147-64 4 7 5 14 7 22l-32 3c-4-21-16-35-41-35" id="V"/><path d="M24-231v-30h32v30H24zM24 0v-190h32V0H24" id="W"/><path d="M100-194c62-1 85 37 85 99 1 63-27 99-86 99S16-35 15-95c0-66 28-99 85-99zM99-20c44 1 53-31 53-75 0-43-8-75-51-75s-53 32-53 75 10 74 51 75" id="X"/><g id="b"><use transform="matrix(0.05,0,0,0.05,0,0)" xlink:href="#P"/><use transform="matrix(0.05,0,0,0.05,5,0)" xlink:href="#Q"/><use transform="matrix(0.05,0,0,0.05,15,0)" xlink:href="#R"/><use transform="matrix(0.05,0,0,0.05,24,0)" xlink:href="#S"/><use transform="matrix(0.05,0,0,0.05,29,0)" xlink:href="#T"/><use transform="matrix(0.05,0,0,0.05,34.95,0)" xlink:href="#U"/><use transform="matrix(0.05,0,0,0.05,44.95,0)" xlink:href="#V"/><use transform="matrix(0.05,0,0,0.05,53.95,0)" xlink:href="#S"/><use transform="matrix(0.05,0,0,0.05,58.95,0)" xlink:href="#W"/><use transform="matrix(0.05,0,0,0.05,62.900000000000006,0)" xlink:href="#X"/><use transform="matrix(0.05,0,0,0.05,72.9,0)" xlink:href="#Q"/></g><path d="M240 0l2-218c-23 76-54 145-80 218h-23L58-218 59 0H30v-248h44l77 211c21-75 51-140 76-211h43V0h-30" id="Y"/><path d="M100-194c63 0 86 42 84 106H49c0 40 14 67 53 68 26 1 43-12 49-29l28 8c-11 28-37 45-77 45C44 4 14-33 15-96c1-61 26-98 85-98zm52 81c6-60-76-77-97-28-3 7-6 17-6 28h103" id="Z"/><path d="M210-169c-67 3-38 105-44 169h-31v-121c0-29-5-50-35-48C34-165 62-65 56 0H25l-1-190h30c1 10-1 24 2 32 10-44 99-50 107 0 11-21 27-35 58-36 85-2 47 119 55 194h-31v-121c0-29-5-49-35-48" id="aa"/><path d="M179-190L93 31C79 59 56 82 12 73V49c39 6 53-20 64-50L1-190h34L92-34l54-156h33" id="ab"/><g id="c"><use transform="matrix(0.05,0,0,0.05,0,0)" xlink:href="#Y"/><use transform="matrix(0.05,0,0,0.05,14.950000000000001,0)" xlink:href="#Z"/><use transform="matrix(0.05,0,0,0.05,24.950000000000003,0)" xlink:href="#aa"/><use transform="matrix(0.05,0,0,0.05,39.900000000000006,0)" xlink:href="#X"/><use transform="matrix(0.05,0,0,0.05,49.900000000000006,0)" xlink:href="#T"/><use transform="matrix(0.05,0,0,0.05,55.85,0)" xlink:href="#ab"/></g><path d="M233-177c-1 41-23 64-60 70L243 0h-38l-65-103H63V0H30v-248c88 3 205-21 203 71zM63-129c60-2 137 13 137-47 0-61-80-42-137-45v92" id="ac"/><path d="M177-190C167-65 218 103 67 71c-23-6-38-20-44-43l32-5c15 47 100 32 89-28v-30C133-14 115 1 83 1 29 1 15-40 15-95c0-56 16-97 71-98 29-1 48 16 59 35 1-10 0-23 2-32h30zM94-22c36 0 50-32 50-73 0-42-14-75-50-75-39 0-46 34-46 75s6 73 46 73" id="ad"/><g id="d"><use transform="matrix(0.05,0,0,0.05,0,0)" xlink:href="#ac"/><use transform="matrix(0.05,0,0,0.05,12.950000000000001,0)" xlink:href="#Z"/><use transform="matrix(0.05,0,0,0.05,22.950000000000003,0)" xlink:href="#ad"/><use transform="matrix(0.05,0,0,0.05,32.95,0)" xlink:href="#W"/><use transform="matrix(0.05,0,0,0.05,36.900000000000006,0)" xlink:href="#R"/><use transform="matrix(0.05,0,0,0.05,45.900000000000006,0)" xlink:href="#S"/><use transform="matrix(0.05,0,0,0.05,50.900000000000006,0)" xlink:href="#Z"/><use transform="matrix(0.05,0,0,0.05,60.900000000000006,0)" xlink:href="#T"/></g><path d="M160-131c35 5 61 23 61 61C221 17 115-2 30 0v-248c76 3 177-17 177 60 0 33-19 50-47 57zm-97-11c50-1 110 9 110-42 0-47-63-36-110-37v79zm0 115c55-2 124 14 124-45 0-56-70-42-124-44v89" id="ae"/><path d="M141-36C126-15 110 5 73 4 37 3 15-17 15-53c-1-64 63-63 125-63 3-35-9-54-41-54-24 1-41 7-42 31l-33-3c5-37 33-52 76-52 45 0 72 20 72 64v82c-1 20 7 32 28 27v20c-31 9-61-2-59-35zM48-53c0 20 12 33 32 33 41-3 63-29 60-74-43 2-92-5-92 41" id="af"/><path d="M143 0L79-87 56-68V0H24v-261h32v163l83-92h37l-77 82L181 0h-38" id="ag"/><g id="e"><use transform="matrix(0.05,0,0,0.05,0,0)" xlink:href="#ae"/><use transform="matrix(0.05,0,0,0.05,12,0)" xlink:href="#af"/><use transform="matrix(0.05,0,0,0.05,22,0)" xlink:href="#Q"/><use transform="matrix(0.05,0,0,0.05,32,0)" xlink:href="#ag"/></g><path d="M30-248c118-7 216 8 213 122C240-48 200 0 122 0H30v-248zM63-27c89 8 146-16 146-99s-60-101-146-95v194" id="ah"/><g id="f"><use transform="matrix(0.05,0,0,0.05,0,0)" xlink:href="#ah"/><use transform="matrix(0.05,0,0,0.05,12.950000000000001,0)" xlink:href="#af"/><use transform="matrix(0.05,0,0,0.05,22.950000000000003,0)" xlink:href="#S"/><use transform="matrix(0.05,0,0,0.05,27.950000000000003,0)" xlink:href="#af"/></g><path d="M106-169C34-169 62-67 57 0H25v-261h32l-1 103c12-21 28-36 61-36 89 0 53 116 60 194h-32v-121c2-32-8-49-39-48" id="ai"/><g id="g"><use transform="matrix(0.05,0,0,0.05,0,0)" xlink:href="#ae"/><use transform="matrix(0.05,0,0,0.05,12,0)" xlink:href="#T"/><use transform="matrix(0.05,0,0,0.05,17.95,0)" xlink:href="#af"/><use transform="matrix(0.05,0,0,0.05,27.950000000000003,0)" xlink:href="#Q"/><use transform="matrix(0.05,0,0,0.05,37.95,0)" xlink:href="#V"/><use transform="matrix(0.05,0,0,0.05,46.95,0)" xlink:href="#ai"/><use transform="matrix(0.05,0,0,0.05,56.95,0)" xlink:href="#W"/><use transform="matrix(0.05,0,0,0.05,60.900000000000006,0)" xlink:href="#Q"/><use transform="matrix(0.05,0,0,0.05,70.9,0)" xlink:href="#ad"/></g><path d="M30 0v-248h33v221h125V0H30" id="aj"/><g id="h"><use transform="matrix(0.05,0,0,0.05,0,0)" xlink:href="#aj"/><use transform="matrix(0.05,0,0,0.05,10,0)" xlink:href="#X"/><use transform="matrix(0.05,0,0,0.05,20,0)" xlink:href="#ad"/><use transform="matrix(0.05,0,0,0.05,30,0)" xlink:href="#W"/><use transform="matrix(0.05,0,0,0.05,33.95,0)" xlink:href="#V"/></g><path d="M205 0l-28-72H64L36 0H1l101-248h38L239 0h-34zm-38-99l-47-123c-12 45-31 82-46 123h93" id="ak"/><path d="M232-93c-1 65-40 97-104 97C67 4 28-28 28-90v-158h33c8 89-33 224 67 224 102 0 64-133 71-224h33v155" id="al"/><g id="i"><use transform="matrix(0.05,0,0,0.05,0,0)" xlink:href="#ak"/><use transform="matrix(0.05,0,0,0.05,12,0)" xlink:href="#aj"/><use transform="matrix(0.05,0,0,0.05,22,0)" xlink:href="#al"/></g><path d="M195 0l-74-108L45 0H8l94-129-87-119h37l69 98 67-98h37l-84 118L233 0h-38" id="am"/><g id="j"><use transform="matrix(0.05,0,0,0.05,0,0)" xlink:href="#Y"/><use transform="matrix(0.05,0,0,0.05,14.950000000000001,0)" xlink:href="#al"/><use transform="matrix(0.05,0,0,0.05,27.900000000000002,0)" xlink:href="#am"/></g><path d="M24 0v-261h32V0H24" id="an"/><g id="k"><use transform="matrix(0.05,0,0,0.05,0,0)" xlink:href="#O"/><use transform="matrix(0.05,0,0,0.05,12.950000000000001,0)" xlink:href="#X"/><use transform="matrix(0.05,0,0,0.05,22.950000000000003,0)" xlink:href="#Q"/><use transform="matrix(0.05,0,0,0.05,32.95,0)" xlink:href="#S"/><use transform="matrix(0.05,0,0,0.05,37.95,0)" xlink:href="#T"/><use transform="matrix(0.05,0,0,0.05,43.900000000000006,0)" xlink:href="#X"/><use transform="matrix(0.05,0,0,0.05,53.900000000000006,0)" xlink:href="#an"/></g><g id="l"><use transform="matrix(0.05,0,0,0.05,0,0)" xlink:href="#al"/><use transform="matrix(0.05,0,0,0.05,12.950000000000001,0)" xlink:href="#Q"/><use transform="matrix(0.05,0,0,0.05,22.950000000000003,0)" xlink:href="#W"/><use transform="matrix(0.05,0,0,0.05,26.900000000000002,0)" xlink:href="#S"/></g><path d="M-5 72V49h209v23H-5" id="ao"/><g id="m"><use transform="matrix(0.05,0,0,0.05,0,0)" xlink:href="#N"/><use transform="matrix(0.05,0,0,0.05,12,0)" xlink:href="#O"/><use transform="matrix(0.05,0,0,0.05,24.950000000000003,0)" xlink:href="#ao"/><use transform="matrix(0.05,0,0,0.05,34.95,0)" xlink:href="#X"/><use transform="matrix(0.05,0,0,0.05,44.95,0)" xlink:href="#U"/><use transform="matrix(0.05,0,0,0.05,54.95,0)" xlink:href="#S"/></g><path d="M24-231v-30h32v30H24zM-9 49c24 4 33-6 33-30v-209h32V24c2 40-23 58-65 49V49" id="ap"/><path d="M115-194c55 1 70 41 70 98S169 2 115 4C84 4 66-9 55-30l1 105H24l-1-265h31l2 30c10-21 28-34 59-34zm-8 174c40 0 45-34 45-75s-6-73-45-74c-42 0-51 32-51 76 0 43 10 73 51 73" id="aq"/><path d="M85-194c31 0 48 13 60 33l-1-100h32l1 261h-30c-2-10 0-23-3-31C134-8 116 4 85 4 32 4 16-35 15-94c0-66 23-100 70-100zm9 24c-40 0-46 34-46 75 0 40 6 74 45 74 42 0 51-32 51-76 0-42-9-74-50-73" id="ar"/><g id="n"><use transform="matrix(0.05,0,0,0.05,0,0)" xlink:href="#ap"/><use transform="matrix(0.05,0,0,0.05,3.95,0)" xlink:href="#U"/><use transform="matrix(0.05,0,0,0.05,13.949999999999998,0)" xlink:href="#aa"/><use transform="matrix(0.05,0,0,0.05,28.899999999999995,0)" xlink:href="#aq"/><use transform="matrix(0.05,0,0,0.05,38.9,0)" xlink:href="#ao"/><use transform="matrix(0.05,0,0,0.05,48.9,0)" xlink:href="#af"/><use transform="matrix(0.05,0,0,0.05,58.900000000000006,0)" xlink:href="#ar"/><use transform="matrix(0.05,0,0,0.05,68.9,0)" xlink:href="#ar"/><use transform="matrix(0.05,0,0,0.05,78.9,0)" xlink:href="#T"/><use transform="matrix(0.05,0,0,0.05,84.85000000000001,0)" xlink:href="#Z"/><use transform="matrix(0.05,0,0,0.05,94.85000000000001,0)" xlink:href="#R"/><use transform="matrix(0.05,0,0,0.05,103.85000000000001,0)" xlink:href="#R"/></g><g id="o"><use transform="matrix(0.05,0,0,0.05,0,0)" xlink:href="#N"/><use transform="matrix(0.05,0,0,0.05,12,0)" xlink:href="#O"/><use transform="matrix(0.05,0,0,0.05,24.950000000000003,0)" xlink:href="#ao"/><use transform="matrix(0.05,0,0,0.05,34.95,0)" xlink:href="#W"/><use transform="matrix(0.05,0,0,0.05,38.900000000000006,0)" xlink:href="#Q"/></g><path fill="#834187" d="M33 0v-248h34V0H33" id="as"/><path fill="#834187" d="M117-194c89-4 53 116 60 194h-32v-121c0-31-8-49-39-48C34-167 62-67 57 0H25l-1-190h30c1 10-1 24 2 32 11-22 29-35 61-36" id="at"/><path fill="#834187" d="M135-143c-3-34-86-38-87 0 15 53 115 12 119 90S17 21 10-45l28-5c4 36 97 45 98 0-10-56-113-15-118-90-4-57 82-63 122-42 12 7 21 19 24 35" id="au"/><path fill="#834187" d="M59-47c-2 24 18 29 38 22v24C64 9 27 4 27-40v-127H5v-23h24l9-43h21v43h35v23H59v120" id="av"/><path fill="#834187" d="M114-163C36-179 61-72 57 0H25l-1-190h30c1 12-1 29 2 39 6-27 23-49 58-41v29" id="aw"/><path fill="#834187" d="M84 4C-5 8 30-112 23-190h32v120c0 31 7 50 39 49 72-2 45-101 50-169h31l1 190h-30c-1-10 1-25-2-33-11 22-28 36-60 37" id="ax"/><path fill="#834187" d="M96-169c-40 0-48 33-48 73s9 75 48 75c24 0 41-14 43-38l32 2c-6 37-31 61-74 61-59 0-76-41-82-99-10-93 101-131 147-64 4 7 5 14 7 22l-32 3c-4-21-16-35-41-35" id="ay"/><path fill="#834187" d="M24-231v-30h32v30H24zM24 0v-190h32V0H24" id="az"/><path fill="#834187" d="M100-194c62-1 85 37 85 99 1 63-27 99-86 99S16-35 15-95c0-66 28-99 85-99zM99-20c44 1 53-31 53-75 0-43-8-75-51-75s-53 32-53 75 10 74 51 75" id="aA"/><g id="p"><use transform="matrix(0.05,0,0,0.05,0,0)" xlink:href="#as"/><use transform="matrix(0.05,0,0,0.05,5,0)" xlink:href="#at"/><use transform="matrix(0.05,0,0,0.05,15,0)" xlink:href="#au"/><use transform="matrix(0.05,0,0,0.05,24,0)" xlink:href="#av"/><use transform="matrix(0.05,0,0,0.05,29,0)" xlink:href="#aw"/><use transform="matrix(0.05,0,0,0.05,34.95,0)" xlink:href="#ax"/><use transform="matrix(0.05,0,0,0.05,44.95,0)" xlink:href="#ay"/><use transform="matrix(0.05,0,0,0.05,53.95,0)" xlink:href="#av"/><use transform="matrix(0.05,0,0,0.05,58.95,0)" xlink:href="#az"/><use transform="matrix(0.05,0,0,0.05,62.900000000000006,0)" xlink:href="#aA"/><use transform="matrix(0.05,0,0,0.05,72.9,0)" xlink:href="#at"/></g><path d="M266 0h-40l-56-210L115 0H75L2-248h35L96-30l15-64 43-154h32l59 218 59-218h35" id="aB"/><g id="q"><use transform="matrix(0.03703703703703704,0,0,0.03703703703703704,0,0)" xlink:href="#ac"/><use transform="matrix(0.03703703703703704,0,0,0.03703703703703704,9.592592592592593,0)" xlink:href="#Z"/><use transform="matrix(0.03703703703703704,0,0,0.03703703703703704,17,0)" xlink:href="#af"/><use transform="matrix(0.03703703703703704,0,0,0.03703703703703704,24.407407407407405,0)" xlink:href="#ar"/><use transform="matrix(0.03703703703703704,0,0,0.03703703703703704,31.814814814814813,0)" xlink:href="#aB"/><use transform="matrix(0.03703703703703704,0,0,0.03703703703703704,44.111111111111114,0)" xlink:href="#T"/><use transform="matrix(0.03703703703703704,0,0,0.03703703703703704,48.51851851851852,0)" xlink:href="#W"/><use transform="matrix(0.03703703703703704,0,0,0.03703703703703704,51.44444444444444,0)" xlink:href="#S"/><use transform="matrix(0.03703703703703704,0,0,0.03703703703703704,55.148148148148145,0)" xlink:href="#Z"/><use transform="matrix(0.03703703703703704,0,0,0.03703703703703704,62.55555555555556,0)" xlink:href="#ak"/><use transform="matrix(0.03703703703703704,0,0,0.03703703703703704,71.44444444444444,0)" xlink:href="#ar"/><use transform="matrix(0.03703703703703704,0,0,0.03703703703703704,78.85185185185185,0)" xlink:href="#ar"/><use transform="matrix(0.03703703703703704,0,0,0.03703703703703704,86.25925925925925,0)" xlink:href="#T"/><use transform="matrix(0.03703703703703704,0,0,0.03703703703703704,90.66666666666666,0)" xlink:href="#Z"/><use transform="matrix(0.03703703703703704,0,0,0.03703703703703704,98.07407407407408,0)" xlink:href="#R"/><use transform="matrix(0.03703703703703704,0,0,0.03703703703703704,104.74074074074073,0)" xlink:href="#R"/></g><g id="r"><use transform="matrix(0.03703703703703704,0,0,0.03703703703703704,0,0)" xlink:href="#aB"/><use transform="matrix(0.03703703703703704,0,0,0.03703703703703704,12.296296296296298,0)" xlink:href="#T"/><use transform="matrix(0.03703703703703704,0,0,0.03703703703703704,16.703703703703706,0)" xlink:href="#W"/><use transform="matrix(0.03703703703703704,0,0,0.03703703703703704,19.629629629629633,0)" xlink:href="#S"/><use transform="matrix(0.03703703703703704,0,0,0.03703703703703704,23.333333333333336,0)" xlink:href="#Z"/><use transform="matrix(0.03703703703703704,0,0,0.03703703703703704,30.740740740740744,0)" xlink:href="#ah"/><use transform="matrix(0.03703703703703704,0,0,0.03703703703703704,40.333333333333336,0)" xlink:href="#af"/><use transform="matrix(0.03703703703703704,0,0,0.03703703703703704,47.74074074074075,0)" xlink:href="#S"/><use transform="matrix(0.03703703703703704,0,0,0.03703703703703704,51.44444444444445,0)" xlink:href="#af"/></g><path d="M206 0h-36l-40-164L89 0H53L-1-190h32L70-26l43-164h34l41 164 42-164h31" id="aC"/><g id="s"><use transform="matrix(0.05,0,0,0.05,0,0)" xlink:href="#aC"/><use transform="matrix(0.05,0,0,0.05,12.950000000000001,0)" xlink:href="#T"/><use transform="matrix(0.05,0,0,0.05,18.900000000000002,0)" xlink:href="#W"/><use transform="matrix(0.05,0,0,0.05,22.85,0)" xlink:href="#S"/><use transform="matrix(0.05,0,0,0.05,27.85,0)" xlink:href="#Z"/><use transform="matrix(0.05,0,0,0.05,37.85,0)" xlink:href="#ao"/><use transform="matrix(0.05,0,0,0.05,47.85,0)" xlink:href="#ar"/><use transform="matrix(0.05,0,0,0.05,57.85,0)" xlink:href="#af"/><use transform="matrix(0.05,0,0,0.05,67.85,0)" xlink:href="#S"/><use transform="matrix(0.05,0,0,0.05,72.85,0)" xlink:href="#af"/></g><g id="t"><use transform="matrix(0.05,0,0,0.05,0,0)" xlink:href="#ac"/><use transform="matrix(0.05,0,0,0.05,12.950000000000001,0)" xlink:href="#Z"/><use transform="matrix(0.05,0,0,0.05,22.950000000000003,0)" xlink:href="#af"/><use transform="matrix(0.05,0,0,0.05,32.95,0)" xlink:href="#ar"/><use transform="matrix(0.05,0,0,0.05,42.95,0)" xlink:href="#ah"/><use transform="matrix(0.05,0,0,0.05,55.900000000000006,0)" xlink:href="#af"/><use transform="matrix(0.05,0,0,0.05,65.9,0)" xlink:href="#S"/><use transform="matrix(0.05,0,0,0.05,70.9,0)" xlink:href="#af"/></g><path d="M63-220v92h138v28H63V0H30v-248h175v28H63" id="aD"/><g id="u"><use transform="matrix(0.05,0,0,0.05,0,0)" xlink:href="#ak"/><use transform="matrix(0.05,0,0,0.05,12,0)" xlink:href="#T"/><use transform="matrix(0.05,0,0,0.05,17.95,0)" xlink:href="#W"/><use transform="matrix(0.05,0,0,0.05,21.9,0)" xlink:href="#S"/><use transform="matrix(0.05,0,0,0.05,26.899999999999995,0)" xlink:href="#ai"/><use transform="matrix(0.05,0,0,0.05,36.9,0)" xlink:href="#aa"/><use transform="matrix(0.05,0,0,0.05,51.85,0)" xlink:href="#Z"/><use transform="matrix(0.05,0,0,0.05,61.85,0)" xlink:href="#S"/><use transform="matrix(0.05,0,0,0.05,66.85,0)" xlink:href="#W"/><use transform="matrix(0.05,0,0,0.05,70.8,0)" xlink:href="#V"/><use transform="matrix(0.05,0,0,0.05,79.8,0)" xlink:href="#aD"/><use transform="matrix(0.05,0,0,0.05,90.75,0)" xlink:href="#an"/><use transform="matrix(0.05,0,0,0.05,94.7,0)" xlink:href="#af"/><use transform="matrix(0.05,0,0,0.05,104.7,0)" xlink:href="#ad"/><use transform="matrix(0.05,0,0,0.05,114.7,0)" xlink:href="#R"/></g><path d="M140-251c81 0 123 46 123 126C263-46 219 4 140 4 59 4 17-45 17-125s42-126 123-126zm0 227c63 0 89-41 89-101s-29-99-89-99c-61 0-89 39-89 99S79-25 140-24" id="aE"/><g id="v"><use transform="matrix(0.05,0,0,0.05,0,0)" xlink:href="#ak"/><use transform="matrix(0.05,0,0,0.05,12,0)" xlink:href="#aj"/><use transform="matrix(0.05,0,0,0.05,22,0)" xlink:href="#al"/><use transform="matrix(0.05,0,0,0.05,34.95,0)" xlink:href="#aE"/><use transform="matrix(0.05,0,0,0.05,48.95,0)" xlink:href="#U"/><use transform="matrix(0.05,0,0,0.05,58.95,0)" xlink:href="#S"/></g><path d="M118-107v75H92v-75H18v-26h74v-75h26v75h74v26h-74" id="aF"/><path d="M155-56V0h-30v-56H8v-25l114-167h33v167h35v25h-35zm-30-156c-27 46-58 90-88 131h88v-131" id="aG"/><g id="w"><use transform="matrix(0.05,0,0,0.05,0,0)" xlink:href="#N"/><use transform="matrix(0.05,0,0,0.05,12,0)" xlink:href="#O"/><use transform="matrix(0.05,0,0,0.05,24.950000000000003,0)" xlink:href="#aF"/><use transform="matrix(0.05,0,0,0.05,35.45,0)" xlink:href="#aG"/></g><path d="M87 75C49 33 22-17 22-94c0-76 28-126 65-167h31c-38 41-64 92-64 168S80 34 118 75H87" id="aH"/><path d="M33-261c38 41 65 92 65 168S71 34 33 75H2C39 34 66-17 66-93S39-220 2-261h31" id="aI"/><g id="x"><use transform="matrix(0.03703703703703704,0,0,0.03703703703703704,0,0)" xlink:href="#aH"/><use transform="matrix(0.03703703703703704,0,0,0.03703703703703704,4.407407407407408,0)" xlink:href="#T"/><use transform="matrix(0.03703703703703704,0,0,0.03703703703703704,8.814814814814817,0)" xlink:href="#R"/><use transform="matrix(0.03703703703703704,0,0,0.03703703703703704,15.481481481481483,0)" xlink:href="#aI"/></g><g id="y"><use transform="matrix(0.03703703703703704,0,0,0.03703703703703704,0,0)" xlink:href="#aH"/><use transform="matrix(0.03703703703703704,0,0,0.03703703703703704,4.407407407407408,0)" xlink:href="#T"/><use transform="matrix(0.03703703703703704,0,0,0.03703703703703704,8.814814814814817,0)" xlink:href="#S"/><use transform="matrix(0.03703703703703704,0,0,0.03703703703703704,12.51851851851852,0)" xlink:href="#aI"/></g><g id="z"><use transform="matrix(0.03703703703703704,0,0,0.03703703703703704,0,0)" xlink:href="#aw"/><use transform="matrix(0.03703703703703704,0,0,0.03703703703703704,4.407407407407408,0)" xlink:href="#au"/></g><g id="A"><use transform="matrix(0.03703703703703704,0,0,0.03703703703703704,0,0)" xlink:href="#aw"/><use transform="matrix(0.03703703703703704,0,0,0.03703703703703704,4.407407407407408,0)" xlink:href="#av"/></g><g id="B"><use transform="matrix(0.05,0,0,0.05,0,0)" xlink:href="#aw"/><use transform="matrix(0.05,0,0,0.05,5.95,0)" xlink:href="#au"/></g><g id="C"><use transform="matrix(0.05,0,0,0.05,0,0)" xlink:href="#aw"/><use transform="matrix(0.05,0,0,0.05,5.95,0)" xlink:href="#av"/></g><path fill="#0c7cba" d="M205 0l-28-72H64L36 0H1l101-248h38L239 0h-34zm-38-99l-47-123c-12 45-31 82-46 123h93" id="aJ"/><path fill="#0c7cba" d="M30 0v-248h33v221h125V0H30" id="aK"/><path fill="#0c7cba" d="M232-93c-1 65-40 97-104 97C67 4 28-28 28-90v-158h33c8 89-33 224 67 224 102 0 64-133 71-224h33v155" id="aL"/><path fill="#0c7cba" d="M212-179c-10-28-35-45-73-45-59 0-87 40-87 99 0 60 29 101 89 101 43 0 62-24 78-52l27 14C228-24 195 4 139 4 59 4 22-46 18-125c-6-104 99-153 187-111 19 9 31 26 39 46" id="aM"/><path fill="#0c7cba" d="M100-194c62-1 85 37 85 99 1 63-27 99-86 99S16-35 15-95c0-66 28-99 85-99zM99-20c44 1 53-31 53-75 0-43-8-75-51-75s-53 32-53 75 10 74 51 75" id="aN"/><path fill="#0c7cba" d="M117-194c89-4 53 116 60 194h-32v-121c0-31-8-49-39-48C34-167 62-67 57 0H25l-1-190h30c1 10-1 24 2 32 11-22 29-35 61-36" id="aO"/><path fill="#0c7cba" d="M59-47c-2 24 18 29 38 22v24C64 9 27 4 27-40v-127H5v-23h24l9-43h21v43h35v23H59v120" id="aP"/><path fill="#0c7cba" d="M114-163C36-179 61-72 57 0H25l-1-190h30c1 12-1 29 2 39 6-27 23-49 58-41v29" id="aQ"/><path fill="#0c7cba" d="M24 0v-261h32V0H24" id="aR"/><g id="D"><use transform="matrix(0.05,0,0,0.05,0,0)" xlink:href="#aJ"/><use transform="matrix(0.05,0,0,0.05,12,0)" xlink:href="#aK"/><use transform="matrix(0.05,0,0,0.05,22,0)" xlink:href="#aL"/><use transform="matrix(0.05,0,0,0.05,34.95,0)" xlink:href="#aM"/><use transform="matrix(0.05,0,0,0.05,47.900000000000006,0)" xlink:href="#aN"/><use transform="matrix(0.05,0,0,0.05,57.900000000000006,0)" xlink:href="#aO"/><use transform="matrix(0.05,0,0,0.05,67.9,0)" xlink:href="#aP"/><use transform="matrix(0.05,0,0,0.05,72.9,0)" xlink:href="#aQ"/><use transform="matrix(0.05,0,0,0.05,78.85000000000001,0)" xlink:href="#aN"/><use transform="matrix(0.05,0,0,0.05,88.85000000000001,0)" xlink:href="#aR"/></g><path fill="#0c7cba" d="M63-220v92h138v28H63V0H30v-248h175v28H63" id="aS"/><path fill="#0c7cba" d="M141-36C126-15 110 5 73 4 37 3 15-17 15-53c-1-64 63-63 125-63 3-35-9-54-41-54-24 1-41 7-42 31l-33-3c5-37 33-52 76-52 45 0 72 20 72 64v82c-1 20 7 32 28 27v20c-31 9-61-2-59-35zM48-53c0 20 12 33 32 33 41-3 63-29 60-74-43 2-92-5-92 41" id="aT"/><path fill="#0c7cba" d="M177-190C167-65 218 103 67 71c-23-6-38-20-44-43l32-5c15 47 100 32 89-28v-30C133-14 115 1 83 1 29 1 15-40 15-95c0-56 16-97 71-98 29-1 48 16 59 35 1-10 0-23 2-32h30zM94-22c36 0 50-32 50-73 0-42-14-75-50-75-39 0-46 34-46 75s6 73 46 73" id="aU"/><g id="E"><use transform="matrix(0.05,0,0,0.05,0,0)" xlink:href="#aS"/><use transform="matrix(0.05,0,0,0.05,10.950000000000001,0)" xlink:href="#aR"/><use transform="matrix(0.05,0,0,0.05,14.9,0)" xlink:href="#aT"/><use transform="matrix(0.05,0,0,0.05,24.900000000000002,0)" xlink:href="#aU"/><use transform="matrix(0.05,0,0,0.05,34.900000000000006,0)" xlink:href="#aM"/><use transform="matrix(0.05,0,0,0.05,47.85000000000001,0)" xlink:href="#aN"/><use transform="matrix(0.05,0,0,0.05,57.85,0)" xlink:href="#aO"/><use transform="matrix(0.05,0,0,0.05,67.85000000000001,0)" xlink:href="#aP"/><use transform="matrix(0.05,0,0,0.05,72.85000000000001,0)" xlink:href="#aQ"/><use transform="matrix(0.05,0,0,0.05,78.80000000000001,0)" xlink:href="#aN"/><use transform="matrix(0.05,0,0,0.05,88.80000000000001,0)" xlink:href="#aR"/></g><path fill="#0c7cba" d="M160-131c35 5 61 23 61 61C221 17 115-2 30 0v-248c76 3 177-17 177 60 0 33-19 50-47 57zm-97-11c50-1 110 9 110-42 0-47-63-36-110-37v79zm0 115c55-2 124 14 124-45 0-56-70-42-124-44v89" id="aV"/><path fill="#0c7cba" d="M96-169c-40 0-48 33-48 73s9 75 48 75c24 0 41-14 43-38l32 2c-6 37-31 61-74 61-59 0-76-41-82-99-10-93 101-131 147-64 4 7 5 14 7 22l-32 3c-4-21-16-35-41-35" id="aW"/><path fill="#0c7cba" d="M106-169C34-169 62-67 57 0H25v-261h32l-1 103c12-21 28-36 61-36 89 0 53 116 60 194h-32v-121c2-32-8-49-39-48" id="aX"/><g id="F"><use transform="matrix(0.05,0,0,0.05,0,0)" xlink:href="#aV"/><use transform="matrix(0.05,0,0,0.05,12,0)" xlink:href="#aQ"/><use transform="matrix(0.05,0,0,0.05,17.95,0)" xlink:href="#aT"/><use transform="matrix(0.05,0,0,0.05,27.950000000000003,0)" xlink:href="#aO"/><use transform="matrix(0.05,0,0,0.05,37.95,0)" xlink:href="#aW"/><use transform="matrix(0.05,0,0,0.05,46.95,0)" xlink:href="#aX"/><use transform="matrix(0.05,0,0,0.05,56.95,0)" xlink:href="#aM"/><use transform="matrix(0.05,0,0,0.05,69.9,0)" xlink:href="#aN"/><use transform="matrix(0.05,0,0,0.05,79.9,0)" xlink:href="#aO"/><use transform="matrix(0.05,0,0,0.05,89.9,0)" xlink:href="#aP"/><use transform="matrix(0.05,0,0,0.05,94.9,0)" xlink:href="#aQ"/><use transform="matrix(0.05,0,0,0.05,100.85000000000001,0)" xlink:href="#aN"/><use transform="matrix(0.05,0,0,0.05,110.85000000000001,0)" xlink:href="#aR"/></g><path fill="#0c7cba" d="M240 0l2-218c-23 76-54 145-80 218h-23L58-218 59 0H30v-248h44l77 211c21-75 51-140 76-211h43V0h-30" id="aY"/><path fill="#0c7cba" d="M100-194c63 0 86 42 84 106H49c0 40 14 67 53 68 26 1 43-12 49-29l28 8c-11 28-37 45-77 45C44 4 14-33 15-96c1-61 26-98 85-98zm52 81c6-60-76-77-97-28-3 7-6 17-6 28h103" id="aZ"/><path fill="#0c7cba" d="M210-169c-67 3-38 105-44 169h-31v-121c0-29-5-50-35-48C34-165 62-65 56 0H25l-1-190h30c1 10-1 24 2 32 10-44 99-50 107 0 11-21 27-35 58-36 85-2 47 119 55 194h-31v-121c0-29-5-49-35-48" id="ba"/><path fill="#0c7cba" d="M266 0h-40l-56-210L115 0H75L2-248h35L96-30l15-64 43-154h32l59 218 59-218h35" id="bb"/><path fill="#0c7cba" d="M24-231v-30h32v30H24zM24 0v-190h32V0H24" id="bc"/><g id="G"><use transform="matrix(0.05,0,0,0.05,0,0)" xlink:href="#aY"/><use transform="matrix(0.05,0,0,0.05,14.950000000000001,0)" xlink:href="#aZ"/><use transform="matrix(0.05,0,0,0.05,24.950000000000003,0)" xlink:href="#ba"/><use transform="matrix(0.05,0,0,0.05,39.900000000000006,0)" xlink:href="#bb"/><use transform="matrix(0.05,0,0,0.05,56.5,0)" xlink:href="#aQ"/><use transform="matrix(0.05,0,0,0.05,62.45,0)" xlink:href="#bc"/><use transform="matrix(0.05,0,0,0.05,66.4,0)" xlink:href="#aP"/><use transform="matrix(0.05,0,0,0.05,71.4,0)" xlink:href="#aZ"/></g><path fill="#0c7cba" d="M233-177c-1 41-23 64-60 70L243 0h-38l-65-103H63V0H30v-248c88 3 205-21 203 71zM63-129c60-2 137 13 137-47 0-61-80-42-137-45v92" id="bd"/><g id="H"><use transform="matrix(0.05,0,0,0.05,0,0)" xlink:href="#bd"/><use transform="matrix(0.05,0,0,0.05,12.950000000000001,0)" xlink:href="#aZ"/><use transform="matrix(0.05,0,0,0.05,22.950000000000003,0)" xlink:href="#aU"/><use transform="matrix(0.05,0,0,0.05,32.95,0)" xlink:href="#bb"/><use transform="matrix(0.05,0,0,0.05,49.55,0)" xlink:href="#aQ"/><use transform="matrix(0.05,0,0,0.05,55.5,0)" xlink:href="#bc"/><use transform="matrix(0.05,0,0,0.05,59.45,0)" xlink:href="#aP"/><use transform="matrix(0.05,0,0,0.05,64.45,0)" xlink:href="#aZ"/></g><path fill="#0c7cba" d="M185-189c-5-48-123-54-124 2 14 75 158 14 163 119 3 78-121 87-175 55-17-10-28-26-33-46l33-7c5 56 141 63 141-1 0-78-155-14-162-118-5-82 145-84 179-34 5 7 8 16 11 25" id="be"/><path fill="#0c7cba" d="M84 4C-5 8 30-112 23-190h32v120c0 31 7 50 39 49 72-2 45-101 50-169h31l1 190h-30c-1-10 1-25-2-33-11 22-28 36-60 37" id="bf"/><g id="I"><use transform="matrix(0.05,0,0,0.05,0,0)" xlink:href="#aJ"/><use transform="matrix(0.05,0,0,0.05,12,0)" xlink:href="#aK"/><use transform="matrix(0.05,0,0,0.05,22,0)" xlink:href="#aL"/><use transform="matrix(0.05,0,0,0.05,34.95,0)" xlink:href="#be"/><use transform="matrix(0.05,0,0,0.05,46.95,0)" xlink:href="#aN"/><use transform="matrix(0.05,0,0,0.05,56.95,0)" xlink:href="#bf"/><use transform="matrix(0.05,0,0,0.05,66.95,0)" xlink:href="#aQ"/><use transform="matrix(0.05,0,0,0.05,72.9,0)" xlink:href="#aW"/><use transform="matrix(0.05,0,0,0.05,81.9,0)" xlink:href="#aZ"/></g><path fill="#0c7cba" d="M127-220V0H93v-220H8v-28h204v28h-85" id="bg"/><g id="J"><use transform="matrix(0.05,0,0,0.05,0,0)" xlink:href="#aY"/><use transform="matrix(0.05,0,0,0.05,14.950000000000001,0)" xlink:href="#aZ"/><use transform="matrix(0.05,0,0,0.05,24.950000000000003,0)" xlink:href="#ba"/><use transform="matrix(0.05,0,0,0.05,39.900000000000006,0)" xlink:href="#bg"/><use transform="matrix(0.05,0,0,0.05,48.85000000000001,0)" xlink:href="#aN"/><use transform="matrix(0.05,0,0,0.05,58.85,0)" xlink:href="#bd"/><use transform="matrix(0.05,0,0,0.05,71.80000000000001,0)" xlink:href="#aZ"/><use transform="matrix(0.05,0,0,0.05,81.80000000000001,0)" xlink:href="#aU"/></g><path fill="#0c7cba" d="M30-248c118-7 216 8 213 122C240-48 200 0 122 0H30v-248zM63-27c89 8 146-16 146-99s-60-101-146-95v194" id="bh"/><path fill="#0c7cba" d="M135-143c-3-34-86-38-87 0 15 53 115 12 119 90S17 21 10-45l28-5c4 36 97 45 98 0-10-56-113-15-118-90-4-57 82-63 122-42 12 7 21 19 24 35" id="bi"/><g id="K"><use transform="matrix(0.05,0,0,0.05,0,0)" xlink:href="#bd"/><use transform="matrix(0.05,0,0,0.05,12.950000000000001,0)" xlink:href="#aZ"/><use transform="matrix(0.05,0,0,0.05,22.950000000000003,0)" xlink:href="#aU"/><use transform="matrix(0.05,0,0,0.05,32.95,0)" xlink:href="#bh"/><use transform="matrix(0.05,0,0,0.05,45.900000000000006,0)" xlink:href="#aZ"/><use transform="matrix(0.05,0,0,0.05,55.900000000000006,0)" xlink:href="#bi"/><use transform="matrix(0.05,0,0,0.05,64.9,0)" xlink:href="#aP"/></g><path d="M185-189c-5-48-123-54-124 2 14 75 158 14 163 119 3 78-121 87-175 55-17-10-28-26-33-46l33-7c5 56 141 63 141-1 0-78-155-14-162-118-5-82 145-84 179-34 5 7 8 16 11 25" id="bj"/><g id="L"><use transform="matrix(0.05,0,0,0.05,0,0)" xlink:href="#bj"/><use transform="matrix(0.05,0,0,0.05,12,0)" xlink:href="#W"/><use transform="matrix(0.05,0,0,0.05,15.949999999999998,0)" xlink:href="#ad"/><use transform="matrix(0.05,0,0,0.05,25.950000000000003,0)" xlink:href="#Q"/></g><path d="M30 0v-248h187v28H63v79h144v27H63v87h162V0H30" id="bk"/><path d="M141 0L90-78 38 0H4l68-98-65-92h35l48 74 47-74h35l-64 92 68 98h-35" id="bl"/><g id="M"><use transform="matrix(0.05,0,0,0.05,0,0)" xlink:href="#bk"/><use transform="matrix(0.05,0,0,0.05,12,0)" xlink:href="#bl"/><use transform="matrix(0.05,0,0,0.05,21,0)" xlink:href="#S"/></g></defs></g></svg>